<?xml version="1.0" standalone="no"?>
<!DOCTYPE svg PUBLIC "-//W3C//DTD SVG 20010904//EN"
 "http://www.w3.org/TR/2001/REC-SVG-20010904/DTD/svg10.dtd">
<svg version="1.0" xmlns="http://www.w3.org/2000/svg"
 width="1200.000000pt" height="1200.000000pt" viewBox="0 0 1200.000000 1200.000000"
 preserveAspectRatio="xMidYMid meet">
<metadata>
Created by potrace 1.14, written by Peter Selinger 2001-2017
</metadata>
<g transform="translate(0.000000,1200.000000) scale(0.100000,-0.100000)"
fill="#000000" stroke="none">
<path d="M5987 10848 c-12 -18 -225 -386 -437 -754 -10 -16 -86 -149 -170
-295 -84 -145 -161 -277 -170 -294 -9 -16 -109 -190 -222 -385 -277 -478 -517
-893 -656 -1135 -108 -189 -206 -358 -292 -505 -21 -36 -123 -211 -226 -390
-103 -179 -236 -410 -297 -515 -60 -104 -120 -208 -132 -230 -13 -22 -86 -150
-164 -283 -78 -134 -141 -248 -141 -253 0 -5 -4 -9 -10 -9 -5 0 -10 -4 -10 -9
0 -5 -64 -119 -141 -253 -78 -133 -151 -259 -161 -278 -11 -19 -62 -107 -113
-195 -209 -360 -279 -483 -308 -535 -16 -30 -36 -62 -43 -71 -8 -8 -14 -18
-14 -21 0 -4 -71 -129 -158 -280 -88 -150 -170 -293 -184 -318 -14 -25 -74
-128 -133 -230 -59 -102 -158 -273 -220 -380 -110 -192 -229 -398 -520 -900
-81 -140 -157 -272 -169 -293 -11 -21 -26 -46 -31 -55 -6 -9 -28 -48 -49 -87
-22 -38 -47 -81 -56 -95 -10 -14 -30 -47 -45 -75 -15 -27 -120 -210 -233 -405
-112 -195 -216 -374 -229 -396 l-23 -41 5769 0 5770 0 -22 41 c-13 22 -35 60
-50 83 -15 24 -27 45 -27 47 0 3 -31 58 -69 123 -38 65 -177 305 -309 533
-131 228 -324 561 -427 740 -104 179 -205 354 -225 390 -20 36 -103 180 -185
320 -81 140 -157 271 -168 290 -10 19 -95 166 -187 325 -92 160 -178 308 -190
330 -35 63 -171 297 -189 325 -16 25 -19 32 -60 105 -12 22 -32 56 -43 75
-318 546 -828 1433 -828 1441 0 5 -4 9 -10 9 -5 0 -10 4 -10 10 0 5 -38 73
-84 152 -46 79 -107 186 -137 238 -30 52 -58 103 -64 112 -5 9 -17 29 -26 45
-9 15 -101 174 -204 353 -104 179 -197 341 -208 360 -11 19 -50 87 -87 150
-37 63 -78 133 -90 155 -32 57 -272 473 -412 713 -65 112 -118 205 -118 207 0
3 -15 28 -33 57 -19 29 -47 78 -64 108 -17 30 -45 80 -63 110 -18 30 -43 73
-55 95 -13 22 -71 123 -129 223 -58 101 -106 188 -106 193 0 5 -4 9 -10 9 -5
0 -10 4 -10 9 0 5 -19 42 -43 83 -24 40 -55 93 -69 118 -14 25 -58 101 -98
170 -40 69 -84 145 -98 170 -14 25 -79 137 -144 248 -65 112 -118 206 -118
208 0 3 -9 17 -19 32 -10 15 -78 130 -149 255 -127 223 -131 228 -145 205z"/>
</g>
</svg>
